HIERARCHY
ROOT Hips
{
  OFFSET 5.84602e-005 68.8428 3.50346
  CHANNELS 6 Xposition Yposition Zposition Zrotation Xrotation Yrotation
  JOINT Spine
  {
    OFFSET 0 8.597 -4.6522
    CHANNELS 3 Zrotation Xrotation Yrotation
    JOINT Spine1
    {
      OFFSET 0 7.8454 0.4098
      CHANNELS 3 Zrotation Xrotation Yrotation
      JOINT Spine2
      {
        OFFSET 0 9.7078 -2.1609
        CHANNELS 3 Zrotation Xrotation Yrotation
        JOINT Neck
        {
          OFFSET 0 21.8761 -0.4549
          CHANNELS 3 Zrotation Xrotation Yrotation
          JOINT Head
          {
            OFFSET 0 12.3537 3.3602
            CHANNELS 3 Zrotation Xrotation Yrotation
            End Site
            {
              OFFSET 0.0001 18.9506 0.5657
            }
          }
        }
        JOINT LeftShoulder
        {
          OFFSET 2.2086 21.1115 7.2329
          CHANNELS 3 Zrotation Xrotation Yrotation
          JOINT LeftArm
          {
            OFFSET 13.1193 3.0282 -4.8998
            CHANNELS 3 Zrotation Xrotation Yrotation
            JOINT LeftForeArm
            {
              OFFSET 27.4081 -0.0973053 -0.2375
              CHANNELS 3 Zrotation Xrotation Yrotation
              JOINT LeftHand
              {
                OFFSET 22.8641 0.0662994 -0.1369
                CHANNELS 3 Zrotation Xrotation Yrotation
                JOINT LeftHandIndex1
                {
                  OFFSET 8.8614 0.775009 2.4612
                  CHANNELS 3 Zrotation Xrotation Yrotation
                  JOINT LeftHandIndex2
                  {
                    OFFSET 3.3146 -0.808304 0.5841
                    CHANNELS 3 Zrotation Xrotation Yrotation
                    JOINT LeftHandIndex3
                    {
                      OFFSET 2.2628 -0.552002 0.3989
                      CHANNELS 3 Zrotation Xrotation Yrotation
                      End Site
                      {
                        OFFSET 1.6102 -0.4807 0.2612
                      }
                    }
                  }
                }
                JOINT LeftHandMiddle1
                {
                  OFFSET 8.9937 0.895004 0.2143
                  CHANNELS 3 Zrotation Xrotation Yrotation
                  JOINT LeftHandMiddle2
                  {
                    OFFSET 4.0984 0.0113983 -0.0242
                    CHANNELS 3 Zrotation Xrotation Yrotation
                    JOINT LeftHandMiddle3
                    {
                      OFFSET 2.2716 0.00689697 -0.0138001
                      CHANNELS 3 Zrotation Xrotation Yrotation
                      End Site
                      {
                        OFFSET 2.0404 -0.1441 0.0027
                      }
                    }
                  }
                }
                JOINT LeftHandRing1
                {
                  OFFSET 8.5234 0.597198 -2.0164
                  CHANNELS 3 Zrotation Xrotation Yrotation
                  JOINT LeftHandRing2
                  {
                    OFFSET 3.7188 -0.188293 -0.2328
                    CHANNELS 3 Zrotation Xrotation Yrotation
                    JOINT LeftHandRing3
                    {
                      OFFSET 2.1191 -0.106598 -0.1332
                      CHANNELS 3 Zrotation Xrotation Yrotation
                      End Site
                      {
                        OFFSET 1.8737 -0.2304 -0.0886
                      }
                    }
                  }
                }
                JOINT LeftHandPinky1
                {
                  OFFSET 7.9094 -0.601089 -3.4825
                  CHANNELS 3 Zrotation Xrotation Yrotation
                  JOINT LeftHandPinky2
                  {
                    OFFSET 2.2874 -0.477005 -0.6314
                    CHANNELS 3 Zrotation Xrotation Yrotation
                    JOINT LeftHandPinky3
                    {
                      OFFSET 1.6774 -0.349396 -0.4633
                      CHANNELS 3 Zrotation Xrotation Yrotation
                      End Site
                      {
                        OFFSET 1.4888 -0.4091 -0.3416
                      }
                    }
                  }
                }
                JOINT LeftHandThumb1
                {
                  OFFSET 1.833 -1.3875 1.3896
                  CHANNELS 3 Zrotation Xrotation Yrotation
                  JOINT LeftHandThumb2
                  {
                    OFFSET 3.4129 -1.121 2.5732
                    CHANNELS 3 Zrotation Xrotation Yrotation
                    JOINT LeftHandThumb3
                    {
                      OFFSET 2.2474 -0.804199 1.6192
                      CHANNELS 3 Zrotation Xrotation Yrotation
                      End Site
                      {
                        OFFSET 1.6527 -0.5689 1.1317
                      }
                    }
                  }
                }
              }
            }
          }
        }
        JOINT RightShoulder
        {
          OFFSET -2.2086 21.1115 7.2329
          CHANNELS 3 Zrotation Xrotation Yrotation
          JOINT RightArm
          {
            OFFSET -13.1216 3.0287 -4.9007
            CHANNELS 3 Zrotation Xrotation Yrotation
            JOINT RightForeArm
            {
              OFFSET -27.4081 -0.0973053 -0.2375
              CHANNELS 3 Zrotation Xrotation Yrotation
              JOINT RightHand
              {
                OFFSET -22.8641 0.0664063 -0.1369
                CHANNELS 3 Zrotation Xrotation Yrotation
                JOINT RightHandIndex1
                {
                  OFFSET -8.8614 0.774994 2.4612
                  CHANNELS 3 Zrotation Xrotation Yrotation
                  JOINT RightHandIndex2
                  {
                    OFFSET -3.3146 -0.808304 0.5841
                    CHANNELS 3 Zrotation Xrotation Yrotation
                    JOINT RightHandIndex3
                    {
                      OFFSET -2.2628 -0.552002 0.3989
                      CHANNELS 3 Zrotation Xrotation Yrotation
                      End Site
                      {
                        OFFSET -1.6102 -0.4807 0.2612
                      }
                    }
                  }
                }
                JOINT RightHandMiddle1
                {
                  OFFSET -8.9937 0.894989 0.2143
                  CHANNELS 3 Zrotation Xrotation Yrotation
                  JOINT RightHandMiddle2
                  {
                    OFFSET -4.0984 0.0113983 -0.0242
                    CHANNELS 3 Zrotation Xrotation Yrotation
                    JOINT RightHandMiddle3
                    {
                      OFFSET -2.2716 0.00691223 -0.0138001
                      CHANNELS 3 Zrotation Xrotation Yrotation
                      End Site
                      {
                        OFFSET -2.0404 -0.1441 0.0027
                      }
                    }
                  }
                }
                JOINT RightHandRing1
                {
                  OFFSET -8.5234 0.597198 -2.0164
                  CHANNELS 3 Zrotation Xrotation Yrotation
                  JOINT RightHandRing2
                  {
                    OFFSET -3.7188 -0.188309 -0.2328
                    CHANNELS 3 Zrotation Xrotation Yrotation
                    JOINT RightHandRing3
                    {
                      OFFSET -2.1191 -0.106598 -0.1332
                      CHANNELS 3 Zrotation Xrotation Yrotation
                      End Site
                      {
                        OFFSET -1.8737 -0.2304 -0.0886
                      }
                    }
                  }
                }
                JOINT RightHandPinky1
                {
                  OFFSET -7.9094 -0.601105 -3.4825
                  CHANNELS 3 Zrotation Xrotation Yrotation
                  JOINT RightHandPinky2
                  {
                    OFFSET -2.2874 -0.477005 -0.6314
                    CHANNELS 3 Zrotation Xrotation Yrotation
                    JOINT RightHandPinky3
                    {
                      OFFSET -1.6774 -0.349396 -0.4633
                      CHANNELS 3 Zrotation Xrotation Yrotation
                      End Site
                      {
                        OFFSET -1.4888 -0.4091 -0.3416
                      }
                    }
                  }
                }
                JOINT RightHandThumb1
                {
                  OFFSET -1.833 -1.38751 1.3896
                  CHANNELS 3 Zrotation Xrotation Yrotation
                  JOINT RightHandThumb2
                  {
                    OFFSET -3.41299 -1.12099 2.5732
                    CHANNELS 3 Zrotation Xrotation Yrotation
                    JOINT RightHandThumb3
                    {
                      OFFSET -2.24741 -0.804108 1.6192
                      CHANNELS 3 Zrotation Xrotation Yrotation
                      End Site
                      {
                        OFFSET -1.6527 -0.5689 1.1317
                      }
                    }
                  }
                }
              }
            }
          }
        }
      }
    }
  }
  JOINT RightUpLeg
  {
    OFFSET -9.1966 3.8861 -0.7581
    CHANNELS 3 Zrotation Xrotation Yrotation
    JOINT RightLeg
    {
      OFFSET -0.7359 -41.0265 0
      CHANNELS 3 Zrotation Xrotation Yrotation
      JOINT RightFoot
      {
        OFFSET 0 -40.2855 0
        CHANNELS 3 Zrotation Xrotation Yrotation
        JOINT RightToeBase
        {
          OFFSET 0 -5.6122 11.7359
          CHANNELS 3 Zrotation Xrotation Yrotation
          End Site
          {
            OFFSET 0 0 7.8731
          }
        }
      }
    }
  }
  JOINT LeftUpLeg
  {
    OFFSET 9.1965 3.8864 -0.7581
    CHANNELS 3 Zrotation Xrotation Yrotation
    JOINT LeftLeg
    {
      OFFSET 0.7359 -41.0268 0
      CHANNELS 3 Zrotation Xrotation Yrotation
      JOINT LeftFoot
      {
        OFFSET 0 -40.2855 0
        CHANNELS 3 Zrotation Xrotation Yrotation
        JOINT LeftToeBase
        {
          OFFSET 0 -5.6122 11.7359
          CHANNELS 3 Zrotation Xrotation Yrotation
          End Site
          {
            OFFSET 0 0 7.8731
          }
        }
      }
    }
  }
}
MOTION
Frames:	4
Frame Time:	0.0333333
-0.59659 62.1643 6.83564 -0 -0.97489 -0 -0.644063 2.04508 -0.215433 -1.28165 4.09241 -0.408224 -1.28165 4.09241 -0.408224 7.10921 9.27754 -1.19729 -7.87629e-007 11.1082 1.69898e-007 4.66115 3.09157 -5.26419 -52.9403 -1.27616 -14.8203 -18.8695 28.249 -67.4008 -8.15338 -0.821988 6.96011 -2.85683e-007 2.34616e-007 3.06559e-007 6.34851e-008 -5.21369e-008 -6.81241e-008 -3.61072e-007 2.96528e-007 3.87456e-007 -2.85683e-007 2.34616e-007 3.06559e-007 -0.0145983 -8.17945e-005 3.01034e-007 -3.65039e-007 2.99737e-007 3.91752e-007 -2.85683e-007 2.34616e-007 3.06559e-007 -0.0187644 -0.0011711 5.25903e-005 -3.65035e-007 2.99723e-007 3.91767e-007 -2.85683e-007 2.34616e-007 3.06559e-007 -0.0122103 -0.00322774 0.000673656 -3.65027e-007 2.99747e-007 3.91756e-007 -2.85683e-007 2.34616e-007 3.06559e-007 6.34851e-008 -5.21369e-008 -6.81241e-008 -3.61072e-007 2.96528e-007 3.87456e-007 -4.92046 2.81016 4.99334 52.6785 -1.39293 14.9449 18.7694 27.9127 66.8153 9.39778 -0.647579 -6.32614 1.25621e-007 1.13715e-007 -1.29631e-007 5.02486e-007 4.54859e-007 -5.18525e-007 2.51243e-007 2.2743e-007 -2.59263e-007 1.25621e-007 1.13715e-007 -1.29631e-007 0.0149868 -8.89083e-005 2.32101e-006 2.51241e-007 2.27396e-007 -2.59293e-007 1.25621e-007 1.13715e-007 -1.29631e-007 0.0190245 -0.00119538 -5.69975e-005 2.51238e-007 2.27387e-007 -2.59303e-007 1.25621e-007 1.13715e-007 -1.29631e-007 0.0122304 -0.00323845 -0.000674476 2.51233e-007 2.27404e-007 -2.59294e-007 1.25621e-007 1.13715e-007 -1.29631e-007 5.02486e-007 4.54859e-007 -5.18525e-007 2.51243e-007 2.2743e-007 -2.59263e-007 -26.4312 -23.8859 -33.4844 -141.288 49.594 143.073 6.85769 24.5979 15.5022 -2.51638e-006 -2.1638e-007 -2.38306e-006 23.0802 -22.0081 32.4329 141.488 49.438 -143.21 -5.25867 25.2862 -14.8615 -1.45165e-006 -2.40462e-007 8.56593e-007 
-0.596526 62.1334 6.60549 -0 -0.448445 -0 -0.643497 1.86114 -0.217333 -1.28093 3.72464 -0.414055 -1.28093 3.72464 -0.414055 7.14525 9.32295 -1.2062 -1.37033e-006 11.1631 7.66006e-007 4.59526 3.47612 -5.17457 -52.9403 -1.27617 -14.8203 -18.8991 28.3275 -67.5918 -8.16684 -0.703762 7.08343 7.94562e-009 -6.51182e-009 -8.51025e-009 -4.56874e-007 3.7443e-007 4.89339e-007 -9.53477e-008 7.81418e-008 1.02123e-007 7.94562e-009 -6.51182e-009 -8.51025e-009 -0.0146107 -9.09226e-005 -2.76486e-007 -9.53476e-008 7.81288e-008 1.02133e-007 7.94562e-009 -6.51182e-009 -8.51025e-009 -0.0187582 -0.00116605 5.56716e-005 9.26583e-007 3.68959e-007 8.40044e-007 7.94562e-009 -6.51182e-009 -8.51025e-009 -0.0122579 -0.00325033 0.00068344 9.25933e-007 3.69216e-007 8.39942e-007 7.94562e-009 -6.51182e-009 -8.51025e-009 -4.56874e-007 3.7443e-007 4.89339e-007 -9.53477e-008 7.81418e-008 1.02123e-007 -4.85905 3.18986 4.89181 52.6785 -1.39293 14.9449 18.7982 27.9856 66.9961 9.43493 -0.530757 -6.4336 1.25785e-007 1.13618e-007 -1.2956e-007 -3.77354e-007 -3.40855e-007 3.8868e-007 2.5157e-007 2.27237e-007 -2.5912e-007 1.25785e-007 1.13618e-007 -1.2956e-007 0.0150234 -9.68776e-005 1.20437e-006 2.51568e-007 2.27203e-007 -2.5915e-007 1.25785e-007 1.13618e-007 -1.2956e-007 0.0190073 -0.00119586 -5.92409e-005 2.51565e-007 2.27194e-007 -2.5916e-007 1.25785e-007 1.13618e-007 -1.2956e-007 0.0122943 -0.0032465 -0.000679277 2.51559e-007 2.27211e-007 -2.59151e-007 1.25785e-007 1.13618e-007 -1.2956e-007 -3.77354e-007 -3.40855e-007 3.8868e-007 2.5157e-007 2.27237e-007 -2.5912e-007 -26.3527 -24.692 -33.5888 -141.509 49.435 143.221 7.10556 24.6508 15.3753 -1.6126e-006 -4.65011e-008 -9.65528e-007 22.9956 -22.8209 32.5229 141.717 49.2715 -143.364 -5.48608 25.3361 -14.7495 7.25817e-007 1.20236e-007 -4.28318e-007 
-0.596464 62.1032 6.37504 0 0.077954 -0 -0.642866 1.67734 -0.219209 -1.28013 3.35706 -0.419839 -1.28013 3.35706 -0.419839 7.18117 9.36834 -1.21515 1.24503e-006 11.2179 1.46679e-007 4.52869 3.8607 -5.0845 -52.9403 -1.27616 -14.8203 -18.9285 28.4061 -67.7829 -8.18075 -0.585563 7.2068 2.83162e-006 -5.3659e-007 1.33711e-006 8.23408e-007 -6.73423e-007 -8.80265e-007 1.84115e-006 2.7347e-007 2.39598e-006 2.83162e-006 -5.3659e-007 1.33711e-006 -0.0146453 -9.34765e-005 5.68032e-006 1.84335e-006 2.71538e-007 2.39388e-006 2.83162e-006 -5.3659e-007 1.33711e-006 -0.0187462 -0.00117552 6.79497e-005 1.84343e-006 2.71467e-007 2.39388e-006 2.83162e-006 -5.3659e-007 1.33711e-006 -0.0122516 -0.0032448 0.000675346 1.8414e-006 2.7325e-007 2.39594e-006 2.83162e-006 -5.3659e-007 1.33711e-006 8.23408e-007 -6.73423e-007 -8.80265e-007 1.84115e-006 2.7347e-007 2.39598e-006 -4.797 3.56959 4.78984 52.6785 -1.39293 14.9449 18.8267 28.0586 67.177 9.47225 -0.413988 -6.54118 8.81636e-007 7.94647e-007 -9.06425e-007 -3.77844e-007 -3.40563e-007 3.88468e-007 -1.25948e-007 -1.13521e-007 1.29489e-007 8.81636e-007 7.94647e-007 -9.06425e-007 0.0150188 -9.07318e-005 1.32548e-006 -5.90732e-007 2.26668e-008 -3.23017e-007 8.81636e-007 7.94647e-007 -9.06425e-007 0.0190301 -0.00119646 -5.7669e-005 -1.25946e-007 -1.135e-007 1.29509e-007 8.81636e-007 7.94647e-007 -9.06425e-007 0.0122489 -0.00324035 -0.00067789 -1.25943e-007 -1.13508e-007 1.29505e-007 8.81636e-007 7.94647e-007 -9.06425e-007 -3.77844e-007 -3.40563e-007 3.88468e-007 -1.25948e-007 -1.13521e-007 1.29489e-007 -26.275 -25.4982 -33.6925 -141.73 49.2756 143.368 7.35377 24.7032 15.2481 3.73881e-006 -3.23285e-007 -3.90384e-007 22.9114 -23.6338 32.612 141.946 49.1044 -143.516 -5.71378 25.3856 -14.6372 -6.36111e-015 -3.18055e-015 -1.59028e-015 
-0.596404 62.0736 6.1443 0 0.604288 -0 -0.642188 1.49372 -0.221066 -1.27926 2.98985 -0.425581 -1.27926 2.98985 -0.425581 7.21707 9.41346 -1.22409 1.11648e-007 11.2728 1.49969e-007 4.4615 4.24511 -4.99393 -52.9403 -1.27616 -14.8203 -18.9575 28.4847 -67.974 -8.19516 -0.467397 7.3302 2.96751e-006 -6.46541e-007 1.19453e-006 3.24963e-006 8.9862e-007 5.25454e-006 5.69503e-006 2.81397e-006 -4.85529e-009 2.96751e-006 -6.46541e-007 1.19453e-006 -0.0146159 -8.49257e-005 7.28268e-006 3.3899e-006 -9.91196e-007 7.43916e-007 2.96751e-006 -6.46541e-007 1.19453e-006 -0.0186947 -0.00116746 6.66745e-005 3.38997e-006 -9.91209e-007 7.43848e-007 2.96751e-006 -6.46541e-007 1.19453e-006 -0.0122938 -0.00324912 0.000679097 3.38988e-006 -9.91155e-007 7.43833e-007 2.96751e-006 -6.46541e-007 1.19453e-006 3.24963e-006 8.9862e-007 5.25454e-006 5.69503e-006 2.81397e-006 -4.85529e-009 -4.73425 3.94913 4.68741 52.6785 -1.39293 14.945 18.8549 28.1317 67.358 9.50985 -0.297305 -6.64877 1.26111e-007 1.13422e-007 -1.2942e-007 1.38722e-006 1.24764e-006 -1.42362e-006 6.30556e-007 5.6711e-007 -6.47098e-007 1.26111e-007 1.13422e-007 -1.2942e-007 0.0150277 -9.06092e-005 3.61755e-006 6.30552e-007 5.67025e-007 -6.47173e-007 1.26111e-007 1.13422e-007 -1.2942e-007 0.0189977 -0.00118806 -4.46287e-005 6.30544e-007 5.67003e-007 -6.47199e-007 1.26111e-007 1.13422e-007 -1.2942e-007 0.0122774 -0.00324487 -0.000677671 6.30531e-007 5.67045e-007 -6.47177e-007 1.26111e-007 1.13422e-007 -1.2942e-007 1.38722e-006 1.24764e-006 -1.42362e-006 6.30556e-007 5.6711e-007 -6.47098e-007 -26.1979 -26.3044 -33.7956 -141.949 49.1158 143.514 7.60232 24.7552 15.1205 2.51661e-006 2.15731e-007 2.38289e-006 22.8279 -24.4464 32.7003 142.172 48.9372 -143.666 -5.94176 25.4348 -14.5245 5.75812e-006 1.39881e-006 1.14467e-006 
